<svg width="62" height="20" viewBox="0 0 62 20" fill="none" xmlns="http://www.w3.org/2000/svg">
<g clip-path="url(#clip0_8327_46302)">
<path d="M42.8453 8.66856C42.8453 10.4849 41.3065 11.9621 39.4143 11.9621C37.5222 11.9621 35.9834 10.4849 35.9834 8.66856V0.75H32.7715V8.66856C32.7715 12.185 35.7513 15.0455 39.4143 15.0455C43.0774 15.0455 46.0572 12.185 46.0572 8.66856V0.75H42.8453V8.66856Z" fill="#27272B"/>
<path d="M54.4114 6.63572L54.4143 9.65685L58.4753 9.65273C57.8455 11.0534 56.4856 12.0243 54.9138 12.0243C52.7438 12.0243 50.9773 10.1732 50.9773 7.89773C50.9773 5.62226 52.7438 3.77113 54.9138 3.77113C55.9459 3.77113 56.9222 4.1886 57.6622 4.94526L57.7596 5.0455L60.0571 2.97877L59.9597 2.87853C58.6185 1.50666 56.8263 0.75 54.9138 0.75C51.0074 0.75 47.8281 3.95652 47.8281 7.89773C47.8281 11.8389 51.0074 15.0455 54.9138 15.0455C58.8203 15.0455 61.9752 11.8623 61.9996 7.94167V6.62885L54.41 6.63572H54.4114Z" fill="#27272B"/>
<path d="M28.743 15.0455H31.8853L26.3364 0.75H23.2641L17.7139 15.0455H20.8562L21.9432 12.2466H27.6559L28.743 15.0455ZM23.1399 9.16329L24.7989 4.88867L26.4579 9.16329H23.1386H23.1399Z" fill="#27272B"/>
<path d="M15.4285 0.75L13.0969 9.52489L10.7486 0.775227L7.84866 0.769621L5.45854 9.52489L3.16871 0.75H0L3.73281 15.0455H7.12995L9.28607 7.14792L11.4046 15.0455H14.8017L18.6 0.75H15.4285Z" fill="#27272B"/>
<path d="M45.1715 16.7273H33.6572V19.25H45.1715V16.7273Z" fill="#FF0076"/>
</g>
<defs>
<clipPath id="clip0_8327_46302">
<rect width="62" height="18.5" fill="white" transform="translate(0 0.75)"/>
</clipPath>
</defs>
</svg>
